<mxfile host="app.diagrams.net" agent="Mozilla/5.0 (Windows NT 10.0; Win64; x64) AppleWebKit/537.36 (KHTML, like Gecko) Chrome/130.0.0.0 Safari/537.36 Edg/130.0.0.0" version="24.8.0">
  <diagram name="第 1 页" id="RPlc1iTUfUmJJ-QRqBsf">
    <mxGraphModel dx="1589" dy="2201" grid="1" gridSize="10" guides="1" tooltips="1" connect="1" arrows="1" fold="1" page="1" pageScale="1" pageWidth="827" pageHeight="1169" math="0" shadow="0">
      <root>
        <mxCell id="0" />
        <mxCell id="1" parent="0" />
        <mxCell id="LkdHdyvXdT82jizGxrXq-61" style="edgeStyle=none;curved=1;rounded=0;orthogonalLoop=1;jettySize=auto;html=1;exitX=1;exitY=0.5;exitDx=0;exitDy=0;entryX=0;entryY=0.5;entryDx=0;entryDy=0;fontSize=12;startSize=8;endSize=8;" edge="1" parent="1" source="LkdHdyvXdT82jizGxrXq-39" target="LkdHdyvXdT82jizGxrXq-60">
          <mxGeometry relative="1" as="geometry" />
        </mxCell>
        <mxCell id="LkdHdyvXdT82jizGxrXq-64" value="Retriver Output" style="edgeLabel;html=1;align=center;verticalAlign=middle;resizable=0;points=[];fontSize=12;" vertex="1" connectable="0" parent="LkdHdyvXdT82jizGxrXq-61">
          <mxGeometry x="0.0024" y="-1" relative="1" as="geometry">
            <mxPoint as="offset" />
          </mxGeometry>
        </mxCell>
        <mxCell id="LkdHdyvXdT82jizGxrXq-39" value="Retriver" style="swimlane;whiteSpace=wrap;html=1;" vertex="1" parent="1">
          <mxGeometry x="14" y="410" width="800" height="250" as="geometry" />
        </mxCell>
        <mxCell id="LkdHdyvXdT82jizGxrXq-40" value="" style="group" vertex="1" connectable="0" parent="LkdHdyvXdT82jizGxrXq-39">
          <mxGeometry x="56" y="40" width="715.5" height="174" as="geometry" />
        </mxCell>
        <mxCell id="LkdHdyvXdT82jizGxrXq-11" value="PDF/DOC/TXT/MarkDown" style="sketch=0;aspect=fixed;pointerEvents=1;shadow=0;dashed=0;html=1;strokeColor=none;labelPosition=center;verticalLabelPosition=bottom;verticalAlign=top;align=center;fillColor=#000000;shape=mxgraph.mscae.enterprise.document" vertex="1" parent="LkdHdyvXdT82jizGxrXq-40">
          <mxGeometry width="40" height="50" as="geometry" />
        </mxCell>
        <mxCell id="LkdHdyvXdT82jizGxrXq-12" value="Read&lt;div&gt;&lt;br&gt;&lt;/div&gt;&lt;div&gt;Parse to String&lt;/div&gt;" style="whiteSpace=wrap;html=1;shape=mxgraph.basic.document" vertex="1" parent="LkdHdyvXdT82jizGxrXq-40">
          <mxGeometry x="134.5" y="40" width="70" height="80" as="geometry" />
        </mxCell>
        <mxCell id="LkdHdyvXdT82jizGxrXq-19" value="Web Page" style="sketch=0;pointerEvents=1;shadow=0;dashed=0;html=1;strokeColor=none;fillColor=#505050;labelPosition=center;verticalLabelPosition=bottom;verticalAlign=top;outlineConnect=0;align=center;shape=mxgraph.office.concepts.web_page;" vertex="1" parent="LkdHdyvXdT82jizGxrXq-40">
          <mxGeometry y="120" width="50" height="54" as="geometry" />
        </mxCell>
        <mxCell id="LkdHdyvXdT82jizGxrXq-21" value="Embeded" style="shape=image;html=1;verticalAlign=top;verticalLabelPosition=bottom;labelBackgroundColor=#ffffff;imageAspect=0;aspect=fixed;image=https://cdn2.iconfinder.com/data/icons/competitive-strategy-and-corporate-training/512/740_Abstract_aggregation_cube_dimensional_matrix_Business_Management-128.png;imageBorder=none;" vertex="1" parent="LkdHdyvXdT82jizGxrXq-40">
          <mxGeometry x="484.5" y="28" width="104" height="104" as="geometry" />
        </mxCell>
        <mxCell id="LkdHdyvXdT82jizGxrXq-28" style="edgeStyle=none;curved=1;rounded=0;orthogonalLoop=1;jettySize=auto;html=1;exitX=1;exitY=0.5;exitDx=0;exitDy=0;exitPerimeter=0;entryX=0;entryY=0.5;entryDx=0;entryDy=0;fontSize=12;startSize=8;endSize=8;" edge="1" parent="LkdHdyvXdT82jizGxrXq-40" source="LkdHdyvXdT82jizGxrXq-24" target="LkdHdyvXdT82jizGxrXq-21">
          <mxGeometry relative="1" as="geometry" />
        </mxCell>
        <mxCell id="LkdHdyvXdT82jizGxrXq-24" value="&lt;font style=&quot;font-size: 12px;&quot;&gt;Split&lt;/font&gt;" style="html=1;strokeWidth=2;outlineConnect=0;dashed=0;align=center;fontSize=8;fillColor=none;verticalLabelPosition=bottom;verticalAlign=top;shape=mxgraph.eip.splitter;" vertex="1" parent="LkdHdyvXdT82jizGxrXq-40">
          <mxGeometry x="274.5" y="35" width="150" height="90" as="geometry" />
        </mxCell>
        <mxCell id="LkdHdyvXdT82jizGxrXq-25" style="edgeStyle=none;curved=1;rounded=0;orthogonalLoop=1;jettySize=auto;html=1;exitX=1;exitY=0.5;exitDx=0;exitDy=0;exitPerimeter=0;entryX=0;entryY=0.5;entryDx=0;entryDy=0;entryPerimeter=0;fontSize=12;startSize=8;endSize=8;" edge="1" parent="LkdHdyvXdT82jizGxrXq-40" source="LkdHdyvXdT82jizGxrXq-12" target="LkdHdyvXdT82jizGxrXq-24">
          <mxGeometry relative="1" as="geometry" />
        </mxCell>
        <mxCell id="LkdHdyvXdT82jizGxrXq-29" value="ChromaDB&lt;div&gt;Storage&lt;/div&gt;" style="strokeWidth=2;html=1;shape=mxgraph.flowchart.database;whiteSpace=wrap;" vertex="1" parent="LkdHdyvXdT82jizGxrXq-40">
          <mxGeometry x="645.5" y="26.25" width="70" height="107.5" as="geometry" />
        </mxCell>
        <mxCell id="LkdHdyvXdT82jizGxrXq-30" style="edgeStyle=none;curved=1;rounded=0;orthogonalLoop=1;jettySize=auto;html=1;exitX=1;exitY=0.5;exitDx=0;exitDy=0;entryX=0;entryY=0.5;entryDx=0;entryDy=0;entryPerimeter=0;fontSize=12;startSize=8;endSize=8;" edge="1" parent="LkdHdyvXdT82jizGxrXq-40" source="LkdHdyvXdT82jizGxrXq-21" target="LkdHdyvXdT82jizGxrXq-29">
          <mxGeometry relative="1" as="geometry" />
        </mxCell>
        <mxCell id="LkdHdyvXdT82jizGxrXq-89" style="edgeStyle=orthogonalEdgeStyle;rounded=0;orthogonalLoop=1;jettySize=auto;html=1;exitX=1;exitY=0.5;exitDx=0;exitDy=0;exitPerimeter=0;entryX=0.5;entryY=0;entryDx=0;entryDy=0;entryPerimeter=0;fontSize=12;startSize=8;endSize=8;" edge="1" parent="LkdHdyvXdT82jizGxrXq-40" source="LkdHdyvXdT82jizGxrXq-11" target="LkdHdyvXdT82jizGxrXq-12">
          <mxGeometry relative="1" as="geometry">
            <Array as="points">
              <mxPoint x="170" y="25" />
            </Array>
          </mxGeometry>
        </mxCell>
        <mxCell id="LkdHdyvXdT82jizGxrXq-90" style="edgeStyle=orthogonalEdgeStyle;rounded=0;orthogonalLoop=1;jettySize=auto;html=1;entryX=0.5;entryY=1;entryDx=0;entryDy=0;entryPerimeter=0;fontSize=12;startSize=8;endSize=8;" edge="1" parent="LkdHdyvXdT82jizGxrXq-40" source="LkdHdyvXdT82jizGxrXq-19" target="LkdHdyvXdT82jizGxrXq-12">
          <mxGeometry relative="1" as="geometry" />
        </mxCell>
        <mxCell id="LkdHdyvXdT82jizGxrXq-44" style="edgeStyle=orthogonalEdgeStyle;rounded=0;orthogonalLoop=1;jettySize=auto;html=1;fontSize=12;startSize=8;endSize=8;" edge="1" parent="1" source="LkdHdyvXdT82jizGxrXq-42" target="LkdHdyvXdT82jizGxrXq-39">
          <mxGeometry relative="1" as="geometry" />
        </mxCell>
        <mxCell id="LkdHdyvXdT82jizGxrXq-68" style="edgeStyle=orthogonalEdgeStyle;rounded=0;orthogonalLoop=1;jettySize=auto;html=1;exitX=1;exitY=0.75;exitDx=0;exitDy=0;entryX=0;entryY=0.5;entryDx=0;entryDy=0;fontSize=12;startSize=8;endSize=8;" edge="1" parent="1" source="LkdHdyvXdT82jizGxrXq-42" target="LkdHdyvXdT82jizGxrXq-58">
          <mxGeometry relative="1" as="geometry">
            <Array as="points">
              <mxPoint x="681" y="300" />
              <mxPoint x="970" y="300" />
              <mxPoint x="970" y="633" />
            </Array>
          </mxGeometry>
        </mxCell>
        <mxCell id="LkdHdyvXdT82jizGxrXq-70" style="edgeStyle=orthogonalEdgeStyle;rounded=0;orthogonalLoop=1;jettySize=auto;html=1;exitX=1;exitY=0.5;exitDx=0;exitDy=0;entryX=0;entryY=0.25;entryDx=0;entryDy=0;fontSize=12;startSize=8;endSize=8;" edge="1" parent="1" source="LkdHdyvXdT82jizGxrXq-42" target="LkdHdyvXdT82jizGxrXq-66">
          <mxGeometry relative="1" as="geometry" />
        </mxCell>
        <mxCell id="LkdHdyvXdT82jizGxrXq-91" value="Add Current Input Before Next Q&amp;amp;A" style="edgeLabel;html=1;align=center;verticalAlign=middle;resizable=0;points=[];fontSize=12;" vertex="1" connectable="0" parent="LkdHdyvXdT82jizGxrXq-70">
          <mxGeometry x="0.5433" y="3" relative="1" as="geometry">
            <mxPoint as="offset" />
          </mxGeometry>
        </mxCell>
        <mxCell id="LkdHdyvXdT82jizGxrXq-42" value="Input" style="swimlane;whiteSpace=wrap;html=1;" vertex="1" parent="1">
          <mxGeometry x="60" y="202" width="121.5" height="130" as="geometry" />
        </mxCell>
        <mxCell id="LkdHdyvXdT82jizGxrXq-10" value="User Question Input" style="sketch=0;outlineConnect=0;fontColor=#232F3E;gradientColor=none;fillColor=#232F3D;strokeColor=none;dashed=0;verticalLabelPosition=bottom;verticalAlign=top;align=center;html=1;fontSize=12;fontStyle=0;aspect=fixed;pointerEvents=1;shape=mxgraph.aws4.question;" vertex="1" parent="LkdHdyvXdT82jizGxrXq-42">
          <mxGeometry x="49.5" y="40.00000000000001" width="21" height="39.95" as="geometry" />
        </mxCell>
        <mxCell id="LkdHdyvXdT82jizGxrXq-80" style="edgeStyle=orthogonalEdgeStyle;rounded=0;orthogonalLoop=1;jettySize=auto;html=1;exitX=1;exitY=0.5;exitDx=0;exitDy=0;entryX=0;entryY=0.5;entryDx=0;entryDy=0;fontSize=12;startSize=8;endSize=8;" edge="1" parent="1" source="LkdHdyvXdT82jizGxrXq-60" target="LkdHdyvXdT82jizGxrXq-77">
          <mxGeometry relative="1" as="geometry" />
        </mxCell>
        <mxCell id="LkdHdyvXdT82jizGxrXq-60" value="Prompt" style="swimlane;whiteSpace=wrap;html=1;" vertex="1" parent="1">
          <mxGeometry x="960" y="397.5" width="230" height="275" as="geometry" />
        </mxCell>
        <mxCell id="LkdHdyvXdT82jizGxrXq-59" value="" style="group" vertex="1" connectable="0" parent="LkdHdyvXdT82jizGxrXq-60">
          <mxGeometry x="45" y="40" width="140" height="210" as="geometry" />
        </mxCell>
        <mxCell id="LkdHdyvXdT82jizGxrXq-45" value="System Message" style="swimlane;fontStyle=0;childLayout=stackLayout;horizontal=1;startSize=30;horizontalStack=0;resizeParent=1;resizeParentMax=0;resizeLast=0;collapsible=1;marginBottom=0;whiteSpace=wrap;html=1;" vertex="1" parent="LkdHdyvXdT82jizGxrXq-59">
          <mxGeometry width="140" height="60" as="geometry" />
        </mxCell>
        <mxCell id="LkdHdyvXdT82jizGxrXq-46" value="System Msg" style="text;strokeColor=none;fillColor=none;align=left;verticalAlign=middle;spacingLeft=4;spacingRight=4;overflow=hidden;points=[[0,0.5],[1,0.5]];portConstraint=eastwest;rotatable=0;whiteSpace=wrap;html=1;" vertex="1" parent="LkdHdyvXdT82jizGxrXq-45">
          <mxGeometry y="30" width="140" height="30" as="geometry" />
        </mxCell>
        <mxCell id="LkdHdyvXdT82jizGxrXq-49" value="Chat History" style="swimlane;fontStyle=0;childLayout=stackLayout;horizontal=1;startSize=30;horizontalStack=0;resizeParent=1;resizeParentMax=0;resizeLast=0;collapsible=1;marginBottom=0;whiteSpace=wrap;html=1;" vertex="1" parent="LkdHdyvXdT82jizGxrXq-59">
          <mxGeometry y="60" width="140" height="90" as="geometry" />
        </mxCell>
        <mxCell id="LkdHdyvXdT82jizGxrXq-52" value="User Messages" style="text;strokeColor=none;fillColor=none;align=left;verticalAlign=middle;spacingLeft=4;spacingRight=4;overflow=hidden;points=[[0,0.5],[1,0.5]];portConstraint=eastwest;rotatable=0;whiteSpace=wrap;html=1;" vertex="1" parent="LkdHdyvXdT82jizGxrXq-49">
          <mxGeometry y="30" width="140" height="30" as="geometry" />
        </mxCell>
        <mxCell id="LkdHdyvXdT82jizGxrXq-53" value="AI Answers" style="text;strokeColor=none;fillColor=none;align=left;verticalAlign=middle;spacingLeft=4;spacingRight=4;overflow=hidden;points=[[0,0.5],[1,0.5]];portConstraint=eastwest;rotatable=0;whiteSpace=wrap;html=1;" vertex="1" parent="LkdHdyvXdT82jizGxrXq-49">
          <mxGeometry y="60" width="140" height="30" as="geometry" />
        </mxCell>
        <mxCell id="LkdHdyvXdT82jizGxrXq-57" value="Current Input" style="swimlane;fontStyle=0;childLayout=stackLayout;horizontal=1;startSize=30;horizontalStack=0;resizeParent=1;resizeParentMax=0;resizeLast=0;collapsible=1;marginBottom=0;whiteSpace=wrap;html=1;" vertex="1" parent="LkdHdyvXdT82jizGxrXq-59">
          <mxGeometry y="150" width="140" height="60" as="geometry" />
        </mxCell>
        <mxCell id="LkdHdyvXdT82jizGxrXq-58" value="&lt;span style=&quot;color: rgb(35, 47, 62); text-align: center; text-wrap-mode: nowrap;&quot;&gt;User Question Input&lt;/span&gt;" style="text;strokeColor=none;fillColor=none;align=left;verticalAlign=middle;spacingLeft=4;spacingRight=4;overflow=hidden;points=[[0,0.5],[1,0.5]];portConstraint=eastwest;rotatable=0;whiteSpace=wrap;html=1;" vertex="1" parent="LkdHdyvXdT82jizGxrXq-57">
          <mxGeometry y="30" width="140" height="30" as="geometry" />
        </mxCell>
        <mxCell id="LkdHdyvXdT82jizGxrXq-67" style="edgeStyle=orthogonalEdgeStyle;rounded=0;orthogonalLoop=1;jettySize=auto;html=1;entryX=0;entryY=0.5;entryDx=0;entryDy=0;fontSize=12;startSize=8;endSize=8;" edge="1" parent="1" source="LkdHdyvXdT82jizGxrXq-66" target="LkdHdyvXdT82jizGxrXq-52">
          <mxGeometry relative="1" as="geometry">
            <Array as="points">
              <mxPoint x="1040" y="430" />
              <mxPoint x="985" y="430" />
              <mxPoint x="985" y="543" />
            </Array>
          </mxGeometry>
        </mxCell>
        <mxCell id="LkdHdyvXdT82jizGxrXq-66" value="Chat History Manager" style="swimlane;whiteSpace=wrap;html=1;" vertex="1" parent="1">
          <mxGeometry x="1005" y="210" width="140" height="110" as="geometry" />
        </mxCell>
        <mxCell id="LkdHdyvXdT82jizGxrXq-65" value="" style="html=1;verticalLabelPosition=bottom;align=center;labelBackgroundColor=#ffffff;verticalAlign=top;strokeWidth=2;strokeColor=#000000;shadow=0;dashed=0;shape=mxgraph.ios7.icons.messages;" vertex="1" parent="LkdHdyvXdT82jizGxrXq-66">
          <mxGeometry x="40" y="40" width="60" height="50" as="geometry" />
        </mxCell>
        <mxCell id="LkdHdyvXdT82jizGxrXq-76" style="edgeStyle=orthogonalEdgeStyle;rounded=0;orthogonalLoop=1;jettySize=auto;html=1;exitX=0.5;exitY=0;exitDx=0;exitDy=0;entryX=0;entryY=0.75;entryDx=0;entryDy=0;fontSize=12;startSize=8;endSize=8;" edge="1" parent="1" source="LkdHdyvXdT82jizGxrXq-75" target="LkdHdyvXdT82jizGxrXq-21">
          <mxGeometry relative="1" as="geometry" />
        </mxCell>
        <mxCell id="LkdHdyvXdT82jizGxrXq-75" value="Embeding Model" style="swimlane;whiteSpace=wrap;html=1;" vertex="1" parent="1">
          <mxGeometry x="414" y="700" width="200" height="200" as="geometry" />
        </mxCell>
        <mxCell id="LkdHdyvXdT82jizGxrXq-71" value="Embedding Model in Use" style="swimlane;fontStyle=0;childLayout=stackLayout;horizontal=1;startSize=30;horizontalStack=0;resizeParent=1;resizeParentMax=0;resizeLast=0;collapsible=1;marginBottom=0;whiteSpace=wrap;html=1;" vertex="1" parent="LkdHdyvXdT82jizGxrXq-75">
          <mxGeometry x="15" y="70" width="170" height="60" as="geometry" />
        </mxCell>
        <mxCell id="LkdHdyvXdT82jizGxrXq-72" value="Item 1" style="text;strokeColor=none;fillColor=none;align=left;verticalAlign=middle;spacingLeft=4;spacingRight=4;overflow=hidden;points=[[0,0.5],[1,0.5]];portConstraint=eastwest;rotatable=0;whiteSpace=wrap;html=1;" vertex="1" parent="LkdHdyvXdT82jizGxrXq-71">
          <mxGeometry y="30" width="170" height="30" as="geometry" />
        </mxCell>
        <mxCell id="LkdHdyvXdT82jizGxrXq-85" style="edgeStyle=none;curved=1;rounded=0;orthogonalLoop=1;jettySize=auto;html=1;exitX=1;exitY=0.5;exitDx=0;exitDy=0;entryX=0;entryY=0.5;entryDx=0;entryDy=0;fontSize=12;startSize=8;endSize=8;" edge="1" parent="1" source="LkdHdyvXdT82jizGxrXq-77" target="LkdHdyvXdT82jizGxrXq-81">
          <mxGeometry relative="1" as="geometry" />
        </mxCell>
        <mxCell id="LkdHdyvXdT82jizGxrXq-77" value="LLM" style="swimlane;whiteSpace=wrap;html=1;" vertex="1" parent="1">
          <mxGeometry x="1290" y="435" width="200" height="200" as="geometry" />
        </mxCell>
        <mxCell id="LkdHdyvXdT82jizGxrXq-78" value="Language Model in Use" style="swimlane;fontStyle=0;childLayout=stackLayout;horizontal=1;startSize=30;horizontalStack=0;resizeParent=1;resizeParentMax=0;resizeLast=0;collapsible=1;marginBottom=0;whiteSpace=wrap;html=1;" vertex="1" parent="LkdHdyvXdT82jizGxrXq-77">
          <mxGeometry x="15" y="70" width="170" height="60" as="geometry" />
        </mxCell>
        <mxCell id="LkdHdyvXdT82jizGxrXq-79" value="Item 1" style="text;strokeColor=none;fillColor=none;align=left;verticalAlign=middle;spacingLeft=4;spacingRight=4;overflow=hidden;points=[[0,0.5],[1,0.5]];portConstraint=eastwest;rotatable=0;whiteSpace=wrap;html=1;" vertex="1" parent="LkdHdyvXdT82jizGxrXq-78">
          <mxGeometry y="30" width="170" height="30" as="geometry" />
        </mxCell>
        <mxCell id="LkdHdyvXdT82jizGxrXq-87" style="edgeStyle=none;curved=1;rounded=0;orthogonalLoop=1;jettySize=auto;html=1;exitX=1;exitY=0.5;exitDx=0;exitDy=0;entryX=0;entryY=0.5;entryDx=0;entryDy=0;fontSize=12;startSize=8;endSize=8;" edge="1" parent="1" source="LkdHdyvXdT82jizGxrXq-81" target="LkdHdyvXdT82jizGxrXq-86">
          <mxGeometry relative="1" as="geometry" />
        </mxCell>
        <mxCell id="LkdHdyvXdT82jizGxrXq-81" value="Output Parser" style="swimlane;whiteSpace=wrap;html=1;" vertex="1" parent="1">
          <mxGeometry x="1580" y="435" width="200" height="200" as="geometry" />
        </mxCell>
        <mxCell id="LkdHdyvXdT82jizGxrXq-88" style="edgeStyle=orthogonalEdgeStyle;rounded=0;orthogonalLoop=1;jettySize=auto;html=1;exitX=0.5;exitY=0;exitDx=0;exitDy=0;entryX=1;entryY=0.5;entryDx=0;entryDy=0;fontSize=12;startSize=8;endSize=8;" edge="1" parent="1" source="LkdHdyvXdT82jizGxrXq-86" target="LkdHdyvXdT82jizGxrXq-66">
          <mxGeometry relative="1" as="geometry" />
        </mxCell>
        <mxCell id="LkdHdyvXdT82jizGxrXq-92" value="Add Current Output Before Next Q&amp;amp;A" style="edgeLabel;html=1;align=center;verticalAlign=middle;resizable=0;points=[];fontSize=12;" vertex="1" connectable="0" parent="LkdHdyvXdT82jizGxrXq-88">
          <mxGeometry x="0.0903" relative="1" as="geometry">
            <mxPoint as="offset" />
          </mxGeometry>
        </mxCell>
        <mxCell id="LkdHdyvXdT82jizGxrXq-86" value="Output" style="swimlane;whiteSpace=wrap;html=1;" vertex="1" parent="1">
          <mxGeometry x="1850" y="435" width="200" height="200" as="geometry" />
        </mxCell>
        <mxCell id="LkdHdyvXdT82jizGxrXq-84" value="" style="shape=mxgraph.bpmn.data;labelPosition=center;verticalLabelPosition=bottom;align=center;verticalAlign=top;size=15;html=1;bpmnTransferType=output;isCollection=1;" vertex="1" parent="LkdHdyvXdT82jizGxrXq-86">
          <mxGeometry x="70" y="53.75" width="60" height="92.5" as="geometry" />
        </mxCell>
        <mxCell id="LkdHdyvXdT82jizGxrXq-93" value="Cyber Hammer II Overview" style="group;fontSize=18;strokeColor=default;" vertex="1" connectable="0" parent="1">
          <mxGeometry x="60" y="-160" width="630" height="160" as="geometry" />
        </mxCell>
        <mxCell id="LkdHdyvXdT82jizGxrXq-6" style="edgeStyle=orthogonalEdgeStyle;rounded=0;orthogonalLoop=1;jettySize=auto;html=1;exitX=1;exitY=0.5;exitDx=0;exitDy=0;entryX=0;entryY=0.5;entryDx=0;entryDy=0;" edge="1" parent="LkdHdyvXdT82jizGxrXq-93" source="LkdHdyvXdT82jizGxrXq-1" target="LkdHdyvXdT82jizGxrXq-5">
          <mxGeometry relative="1" as="geometry" />
        </mxCell>
        <mxCell id="LkdHdyvXdT82jizGxrXq-37" style="edgeStyle=none;curved=1;rounded=0;orthogonalLoop=1;jettySize=auto;html=1;exitX=0.5;exitY=0;exitDx=0;exitDy=0;entryX=0.5;entryY=0;entryDx=0;entryDy=0;fontSize=12;startSize=8;endSize=8;" edge="1" parent="LkdHdyvXdT82jizGxrXq-93" source="LkdHdyvXdT82jizGxrXq-1" target="LkdHdyvXdT82jizGxrXq-32">
          <mxGeometry relative="1" as="geometry">
            <Array as="points">
              <mxPoint x="190" />
            </Array>
          </mxGeometry>
        </mxCell>
        <mxCell id="LkdHdyvXdT82jizGxrXq-1" value="Input" style="rounded=0;whiteSpace=wrap;html=1;" vertex="1" parent="LkdHdyvXdT82jizGxrXq-93">
          <mxGeometry y="105" width="80" height="50" as="geometry" />
        </mxCell>
        <mxCell id="LkdHdyvXdT82jizGxrXq-3" value="Output" style="rounded=0;whiteSpace=wrap;html=1;" vertex="1" parent="LkdHdyvXdT82jizGxrXq-93">
          <mxGeometry x="550" y="105" width="80" height="50" as="geometry" />
        </mxCell>
        <mxCell id="LkdHdyvXdT82jizGxrXq-34" style="edgeStyle=none;curved=1;rounded=0;orthogonalLoop=1;jettySize=auto;html=1;exitX=1;exitY=0.5;exitDx=0;exitDy=0;entryX=0;entryY=0.5;entryDx=0;entryDy=0;fontSize=12;startSize=8;endSize=8;" edge="1" parent="LkdHdyvXdT82jizGxrXq-93" source="LkdHdyvXdT82jizGxrXq-5" target="LkdHdyvXdT82jizGxrXq-32">
          <mxGeometry relative="1" as="geometry" />
        </mxCell>
        <mxCell id="LkdHdyvXdT82jizGxrXq-5" value="Retriver" style="rounded=1;whiteSpace=wrap;html=1;" vertex="1" parent="LkdHdyvXdT82jizGxrXq-93">
          <mxGeometry x="140" y="100" width="120" height="60" as="geometry" />
        </mxCell>
        <mxCell id="LkdHdyvXdT82jizGxrXq-35" style="edgeStyle=none;curved=1;rounded=0;orthogonalLoop=1;jettySize=auto;html=1;exitX=1;exitY=0.5;exitDx=0;exitDy=0;entryX=0;entryY=0.5;entryDx=0;entryDy=0;fontSize=12;startSize=8;endSize=8;" edge="1" parent="LkdHdyvXdT82jizGxrXq-93" source="LkdHdyvXdT82jizGxrXq-32" target="LkdHdyvXdT82jizGxrXq-33">
          <mxGeometry relative="1" as="geometry" />
        </mxCell>
        <mxCell id="LkdHdyvXdT82jizGxrXq-32" value="Prompt" style="rounded=0;whiteSpace=wrap;html=1;" vertex="1" parent="LkdHdyvXdT82jizGxrXq-93">
          <mxGeometry x="310.5" y="105" width="80" height="50" as="geometry" />
        </mxCell>
        <mxCell id="LkdHdyvXdT82jizGxrXq-36" style="edgeStyle=none;curved=1;rounded=0;orthogonalLoop=1;jettySize=auto;html=1;exitX=1;exitY=0.5;exitDx=0;exitDy=0;entryX=0;entryY=0.5;entryDx=0;entryDy=0;fontSize=12;startSize=8;endSize=8;" edge="1" parent="LkdHdyvXdT82jizGxrXq-93" source="LkdHdyvXdT82jizGxrXq-33" target="LkdHdyvXdT82jizGxrXq-3">
          <mxGeometry relative="1" as="geometry" />
        </mxCell>
        <mxCell id="LkdHdyvXdT82jizGxrXq-33" value="LLM" style="rounded=0;whiteSpace=wrap;html=1;" vertex="1" parent="LkdHdyvXdT82jizGxrXq-93">
          <mxGeometry x="430" y="105" width="80" height="50" as="geometry" />
        </mxCell>
      </root>
    </mxGraphModel>
  </diagram>
</mxfile>
